<?xml version="1.0" encoding="UTF-8"?>
<svg xmlns="http://www.w3.org/2000/svg" xmlns:cge="http://www.cim.com" xmlns:xlink="http://www.w3.org/1999/xlink" preserveAspectRatio="none" >
  <def>
    <symbol id="terminal" preserveAspectRatio="xMinYMin meet" style="overflow:visible">
	  <circle cx="0" cy="0" r="1" stroke="yellow" fill="yellow" stroke-width="1"/>
	</symbol>
	<symbol id="Transformer3:gy0" viewBox="0 0 64 64">
      <use x="20" y="5" xlink:href="#terminal"/>
      <circle fill="none" stroke="#ff0000" stroke-width="1" cx="20" cy="20" r="15"/>
      <line fill="none" stroke="#ff0000" stroke-width="1" x1="11" y1="12" x2="20" y2="19"/>
      <line fill="none" stroke="#ff0000" stroke-width="1" x1="20" y1="19" x2="29" y2="12"/>
      <line fill="none" stroke="#ff0000" stroke-width="1" x1="20" y1="19" x2="20" y2="29"/>
    </symbol>
    <symbol id="Transformer3:gy1" viewBox="0 0 64 64">
      <use x="20" y="61" xlink:href="#terminal"/>
      <circle fill="none" stroke="#607ee5" stroke-width="1" cx="20" cy="46" r="15"/>
      <line fill="#ffff00" stroke="#7878ff" stroke-width="1" x1="23" y1="38" x2="23" y2="54"/>
      <line fill="#ffff00" stroke="#7878ff" stroke-width="1" x1="12" y1="46" x2="23" y2="38"/>
      <line fill="#ffff00" stroke="#7878ff" stroke-width="1" x1="12" y1="46" x2="23" y2="54"/>
    </symbol>
    <symbol id="Transformer3:gy2" viewBox="0 0 64 64">
      <use x="57" y="33" xlink:href="#terminal"/>
      <circle fill="none" stroke="#ffff00" stroke-width="1" cx="42" cy="33" r="15"/>
      <line fill="none" stroke="#ffff00" stroke-width="1" x1="35" y1="26" x2="42" y2="33"/>
      <line fill="none" stroke="#ffff00" stroke-width="1" x1="42" y1="33" x2="49" y2="26"/>
      <line fill="none" stroke="#ffff00" stroke-width="1" x1="42" y1="33" x2="42" y2="41"/>
    </symbol>
  </def>
  <g x="0" y="0" width="112" height="112">
     <use x="0" y="0" xlink:href="#Transformer3:gy0"/>
     <use x="0" y="16" xlink:href="#Transformer3:gy1"/>
	 <use x="16" y="32" xlink:href="#Transformer3:gy2"/>
  </g>
</svg>
